<svg width="40" height="40" viewBox="0 0 40 40" fill="none" xmlns="http://www.w3.org/2000/svg">
<path d="M20.1275 4.9975H20.35C22.405 5.005 32.8175 5.08 35.625 5.835C36.4737 6.06542 37.2471 6.51455 37.8679 7.13752C38.4887 7.76048 38.9351 8.53546 39.1625 9.385C39.415 10.335 39.5925 11.5925 39.7125 12.89L39.7375 13.15L39.7925 13.8L39.8125 14.06C39.975 16.345 39.995 18.485 39.9975 18.9525V19.14C39.995 19.625 39.9725 21.91 39.7925 24.29L39.7725 24.5525L39.75 24.8125C39.625 26.2425 39.44 27.6625 39.1625 28.7075C38.9351 29.557 38.4887 30.332 37.8679 30.955C37.2471 31.5779 36.4737 32.0271 35.625 32.2575C32.725 33.0375 21.7025 33.0925 20.175 33.095H19.82C19.0475 33.095 15.8525 33.08 12.5025 32.965L12.0775 32.95L11.86 32.94L11.4325 32.9225L11.005 32.905C8.23 32.7825 5.5875 32.585 4.37 32.255C3.52157 32.0248 2.74837 31.576 2.12763 30.9535C1.50688 30.331 1.06031 29.5566 0.8325 28.7075C0.555 27.665 0.37 26.2425 0.245 24.8125L0.225 24.55L0.205 24.29C0.0809086 22.596 0.0125383 20.8985 0 19.2L0 18.8925C0.005 18.355 0.025 16.4975 0.16 14.4475L0.1775 14.19L0.185 14.06L0.205 13.8L0.26 13.15L0.285 12.89C0.405 11.5925 0.5825 10.3325 0.835 9.385C1.06243 8.53546 1.50883 7.76048 2.1296 7.13752C2.75037 6.51455 3.52377 6.06542 4.3725 5.835C5.59 5.51 8.2325 5.31 11.0075 5.185L11.4325 5.1675L11.8625 5.1525L12.0775 5.145L12.505 5.1275C14.8843 5.05101 17.2645 5.0085 19.645 5L20.1275 4.9975ZM16 13.0225V25.0675L26.3925 19.0475L16 13.0225Z" fill="#EBC4FF"/>
</svg>
